
[url=http://www.imdb.com/title/tt1182921/][img]http://img545.imageshack.us/img545/1896/imdb1t.png[/img][/url]
[color=red]StoryLine[/color]
[color=green]A westerner named Casey, studying Ninjutsu in Japan, is asked by the Sensei to return to New York to protect the legendary Yoroi Bitsu, an armored chest that 

contains the weapons of the last Koga Ninja[/color]
[img]http://img402.imageshack.us/img402/71/dirtyhd.png[/img]
Format                           : Matroska
File size                        : 1.57 GiB
Duration                         : 1h 26mn
Overall bit rate                 : 2 599 Kbps
Movie name                       : Ninja 2009 BRRip 720p Ac3^^Dual Audio Eng Hindi ^^TAKRIAN^^
Encoded date                     : UTC 2012-02-08 05:41:36
Writing application              : mkvmerge v4.4.0 ('Die Wiederkehr') built on Oct 31 2010 21:52:48
Writing library                  : libebml v1.0.0 + libmatroska v1.0.0

Video
ID                               : 1
Format                           : AVC
Format/Info                      : Advanced Video Codec
Format profile                   : High@L4.1
Format settings, CABAC           : Yes
Format settings, ReFrames        : 8 frames
Muxing mode                      : Header stripping
Codec ID                         : V_MPEG4/ISO/AVC
Duration                         : 1h 26mn
Bit rate                         : 2 088 Kbps
Width                            : 1 280 pixels
Height                           : 528 pixels
Display aspect ratio             : 2.40:1
Frame rate                       : 23.976 fps
Color space                      : YUV
Chroma subsampling               : 4:2:0
Bit depth                        : 8 bits
Scan type                        : Progressive
Bits/(Pixel*Frame)               : 0.129
Stream size                      : 1.23 GiB (78%)
Title                            : ^^TAKRIAN^^^DIRTYHD^^
Writing library                  : x264 core 80 r1376M 3feaec2
Encoding settings                : 
Language                         : English

Audio #1
ID                               : 2
Format                           : AC-3
Format/Info                      : Audio Coding 3
Mode extension                   : CM (complete main)
Muxing mode                      : Header stripping
Codec ID                         : A_AC3
Duration                         : 1h 26mn
Bit rate mode                    : Constant
Bit rate                         : 384 Kbps
Channel(s)                       : 6 channels
Channel positions                : Front: L C R, Side: L R, LFE
Sampling rate                    : 48.0 KHz
Bit depth                        : 16 bits
Compression mode                 : Lossy
Stream size                      : 238 MiB (15%)
Title                            : ^^TAKRIAN^^^DIRTYHD^^
Language                         : English

Audio #2
ID                               : 3
Format                           : AC-3
Format/Info                      : Audio Coding 3
Mode extension                   : CM (complete main)
Muxing mode                      : Header stripping
Codec ID                         : A_AC3
Duration                         : 1h 26mn
Bit rate mode                    : Constant
Bit rate                         : 128 Kbps
Channel(s)                       : 2 channels
Channel positions                : Front: L R
Sampling rate                    : 48.0 KHz
Bit depth                        : 16 bits
Compression mode                 : Lossy
Delay relative to video          : 110ms
Stream size                      : 79.4 MiB (5%)
Title                            : ^^TAKRIAN^^^DIRTYHD^^
Language                         : Hindi

Text
ID                               : 4
Format                           : UTF-8
Codec ID                         : S_TEXT/UTF8
Codec ID/Info                    : UTF-8 Plain Text
Title                            : ^^TAKRIAN^^^DIRTYHD^^
Language                         : English
Subs------------------------------Hardcoded

